<svg width="322" height="188" viewBox="0 0 83 47" fill="none" xmlns="http://www.w3.org/2000/svg">
<path d="M30.9633 21.077C32.8754 23.4359 35.4615 24.7315 38.2512 24.7315H38.3049C40.9603 24.7146 43.5775 23.3731 45.4854 21.0498C47.3734 18.7503 48.3994 15.7707 48.3725 12.6622C48.3725 12.652 48.3725 12.6402 48.3725 12.63C48.3725 12.5333 48.3725 12.4367 48.3725 12.34C48.3429 8.94322 47.2618 5.8161 45.3257 3.5301C43.4249 1.2865 40.8826 0.0485183 38.1664 0.0400391H38.1622C35.4714 0.084131 32.9545 1.34413 31.0749 3.58603C29.242 5.77028 28.1878 8.64813 28.1072 11.6905C28.1016 11.8889 28.1001 12.089 28.103 12.2857C28.0691 15.6401 29.0809 18.7537 30.9661 21.077M33.3855 4.03376C33.7304 3.12479 34.2674 2.49563 34.9386 2.21582C35.193 2.10898 35.4587 2.05638 35.7314 2.05638C36.1823 2.05638 36.65 2.20053 37.1178 2.48883C38.1551 3.12646 39.061 4.09142 39.9668 5.52441C41.9298 8.62441 43.1084 12.1925 43.4701 16.1302C43.521 16.6865 43.5493 17.2003 43.5563 17.6819C43.5465 18.6078 43.4447 19.4117 43.2483 20.1714C42.9388 21.3687 42.3749 22.1877 41.6174 22.5405C40.843 22.9 39.9244 22.7525 39.027 22.1216C37.4923 21.0448 36.4635 19.3964 35.6594 17.9244C34.0031 14.8939 32.946 10.851 32.9022 7.37456V7.36438C32.8951 7.21684 32.8923 7.07438 32.8909 6.93363C32.9065 5.81267 33.0661 4.87829 33.3855 4.03715" fill="white"/>
<path d="M32.2705 29.4738C31.8013 26.4755 30.5746 23.9199 28.623 21.8747C26.2658 19.4055 23.4493 18.0438 20.2258 17.8131C20.1678 17.803 20.1184 17.7639 20.1 17.7063C20.0717 17.6215 20.1141 17.5045 20.2088 17.457C20.7882 17.1348 21.4058 16.7464 21.9923 16.2614C22.5787 15.7764 23.1355 15.1981 23.5906 14.4927C25.3105 11.8336 25.4391 8.75563 23.9651 5.58949C22.3385 2.09606 19.4499 0.196731 15.6131 0.0983722C13.2134 0.0373218 10.6117 0.00508753 7.42638 0H6.7537C6.7537 0 6.74946 0 6.74663 0H0.26992C0.121534 0 0 0.144132 0 0.323891V45.5928C0 45.7708 0.120121 45.9167 0.26992 45.9167H6.81588C6.96426 45.9167 7.0858 45.7725 7.0858 45.5928V38.0429C7.0858 37.7156 7.44475 37.5952 7.58466 37.875C9.06004 40.8173 11.0569 42.9455 13.6558 44.348C15.5905 45.3926 17.5506 45.915 19.5177 45.915C20.9917 45.915 22.4685 45.6216 23.9425 45.0348C26.6685 43.9495 29.0173 41.8568 30.5577 39.1435C32.2111 36.2283 32.8033 32.8858 32.2705 29.4738ZM7.08721 25.7005V1.62463C7.08721 1.44487 7.20733 1.3007 7.35713 1.3007H7.71043C8.99504 1.37532 10.151 1.85694 11.0315 2.2809C14.1207 3.76816 15.8717 6.35434 16.3804 10.1903C16.7394 12.8986 16.3691 15.1151 15.2499 16.9686C14.5574 18.1167 13.6318 19.1325 12.6439 19.8278C10.356 21.4405 8.69544 23.423 7.59738 25.8531C7.46312 26.1482 7.09145 26.0363 7.09145 25.7005M23.7616 33.0978C23.616 35.3922 22.9744 37.8326 21.9979 39.7929C21.2009 41.3955 19.8075 43.4102 17.6947 43.9223C16.1826 44.2886 14.8683 43.8036 14.0317 43.3339C10.1652 41.1564 7.68641 37.2068 7.39529 32.7637V32.7264L7.39388 31.0475V31.0102C7.43627 30.376 7.52389 29.7332 7.65391 29.1024C8.55129 24.7814 10.9834 21.717 14.8853 19.9923C15.4491 19.743 16.3451 19.4852 17.4078 19.6701C21.003 20.2992 24.1502 26.9486 23.7602 33.0927" fill="white"/>
<path d="M82.1864 0.000976562H75.5952C75.4468 0.000976562 75.3253 0.145108 75.3253 0.324868V5.64984C75.3253 5.69393 75.3225 5.73633 75.321 5.77873C75.2984 6.16877 75.2716 6.5656 75.2419 6.96582C75.2278 7.14049 75.215 7.31513 75.1995 7.48981C75.1825 7.69161 75.1642 7.89513 75.1458 8.09863C75.1189 8.38183 75.0907 8.66844 75.0596 8.95674C75.0356 9.18398 75.0101 9.41292 74.9833 9.64186C74.9663 9.78601 74.9494 9.93182 74.931 10.0777C74.9169 10.1947 74.9013 10.3117 74.8872 10.4287C74.8702 10.5644 74.8519 10.6983 74.8335 10.834C74.8165 10.9629 74.7982 11.0935 74.7798 11.2241C74.7614 11.3495 74.7445 11.4733 74.7247 11.5988C74.7049 11.7294 74.6865 11.8617 74.6653 11.994C74.5268 12.8877 74.3685 13.7967 74.1834 14.7141C74.1438 14.9125 74.1029 15.1126 74.0605 15.3128C74.0167 15.518 73.9728 15.7248 73.9262 15.9317C73.8881 16.1064 73.8471 16.2828 73.8075 16.4574C73.7821 16.5643 73.758 16.6711 73.7326 16.7779C73.6153 17.2714 73.4909 17.7683 73.3581 18.2669C73.3072 18.4585 73.2549 18.6518 73.2012 18.8452C73.149 19.0317 73.0967 19.22 73.043 19.4082C72.7066 20.58 72.3265 21.7586 71.8983 22.939C71.7711 23.2917 71.6382 23.6427 71.5026 23.9955C71.463 24.0972 71.4234 24.199 71.3839 24.3007C71.1535 24.8841 70.9104 25.4691 70.6561 26.0525C70.5981 26.1831 70.5402 26.3154 70.4808 26.4459C70.3494 26.7393 70.2137 27.0344 70.0752 27.3278C69.9805 27.5279 69.8859 27.728 69.7884 27.9281C69.5834 28.347 69.3729 28.7642 69.1552 29.1814C69.0097 29.4595 68.8613 29.7359 68.7087 30.0123C68.556 30.2887 68.402 30.5652 68.2437 30.8399C68.0854 31.1163 67.9229 31.391 67.7576 31.6658C67.6912 31.7777 67.6318 31.8913 67.5626 31.9897C67.2799 32.3967 66.9224 32.2983 66.7556 31.9456L53.8517 0.180746C53.8064 0.0705161 53.7132 0.000976562 53.6114 0.000976562H47.0895C46.8888 0.000976562 46.7588 0.253659 46.8492 0.469031C48.4221 4.2355 52.2406 13.6949 53.4447 16.5999C53.4447 16.5999 53.4447 16.6016 53.4447 16.6033C53.5068 16.7542 53.5634 16.8882 53.61 17.0018C53.7429 17.4003 53.9167 18.1228 53.976 19.2827C54.0326 20.3901 53.9845 21.896 53.699 23.9005C53.699 23.909 53.6962 23.9158 53.6962 23.9226C53.6453 24.2821 53.6029 24.5958 53.569 24.8654C53.569 24.8671 53.569 24.8705 53.569 24.8722C53.5252 25.1588 53.5097 25.1927 53.4715 25.4098C53.4376 25.6031 53.4023 25.7947 53.3655 25.9813C53.3274 26.1797 53.1451 26.2865 52.991 26.2001C52.5331 25.944 51.9509 25.6506 51.2627 25.3894C47.7268 24.0497 44.7167 24.7756 43.9932 24.9689C41.219 25.7117 39.4116 27.3007 38.1948 28.3792C36.9512 29.4815 34.8328 31.4063 33.4563 34.8438C32.8656 36.3175 32.2537 37.898 32.4289 39.9958C32.4925 40.7572 32.8345 43.6842 34.8017 45.1986C36.4142 46.44 38.2231 46.0414 39.6165 45.709C44.68 44.4999 47.871 39.7465 49.564 37.184C50.7638 35.3661 52.4088 32.4662 53.6807 28.3979C53.7499 28.1774 53.9859 28.1164 54.1244 28.2843C54.318 28.5217 54.5357 28.81 54.7589 29.1542C56.6117 31.9981 56.6936 35.2542 56.7261 36.5837C56.7289 36.7126 56.7304 36.8398 56.7304 36.9653C56.7304 37.0043 56.7289 37.0433 56.7275 37.0823C56.7261 37.1688 56.7247 37.2553 56.7219 37.34C56.7205 37.3841 56.7176 37.4282 56.7148 37.474C56.7106 37.5537 56.7077 37.6317 56.7035 37.7114C56.6979 37.7928 56.6908 37.8726 56.6837 37.954C56.6809 37.9947 56.6781 38.0354 56.6738 38.0761C56.6682 38.1354 56.6611 38.1948 56.654 38.2558C56.647 38.3152 56.6427 38.3762 56.6343 38.4356C56.63 38.478 56.623 38.5187 56.6173 38.561C56.6074 38.6374 56.5975 38.7137 56.5862 38.79C56.5777 38.8426 56.5693 38.8968 56.5608 38.9494C56.5509 39.0121 56.541 39.0749 56.5297 39.136C56.5226 39.1817 56.5127 39.2258 56.5042 39.2716C56.4915 39.3395 56.4788 39.409 56.4661 39.4768C56.4618 39.4938 56.459 39.5091 56.4548 39.526C56.435 39.621 56.4152 39.7159 56.394 39.8092C56.3813 39.8635 56.3686 39.916 56.3559 39.9703C56.3417 40.0263 56.329 40.0822 56.3149 40.1365C56.3064 40.1738 56.2951 40.2094 56.2852 40.2467C56.2668 40.318 56.2485 40.3875 56.2301 40.457C56.216 40.5079 56.2004 40.5571 56.1863 40.6062C56.1707 40.6605 56.1552 40.7148 56.1382 40.769C56.1199 40.8284 56.1015 40.8861 56.0831 40.9454C56.069 40.9895 56.0563 41.0336 56.0421 41.076C56.028 41.1184 56.0139 41.1608 55.9997 41.2015C55.9799 41.2591 55.9616 41.3185 55.9404 41.3762C55.9291 41.4067 55.9178 41.4372 55.9079 41.4677C55.8838 41.5356 55.8598 41.6034 55.8358 41.6695C55.8132 41.7289 55.792 41.7849 55.7694 41.8442C55.7552 41.8815 55.7411 41.9188 55.727 41.9561C55.7044 42.0138 55.6818 42.0698 55.6577 42.1274C55.6436 42.163 55.6295 42.1987 55.6153 42.2343C55.597 42.2801 55.5772 42.3259 55.5574 42.3699C55.539 42.414 55.5192 42.4598 55.5009 42.5039C55.4853 42.5395 55.4698 42.5751 55.4542 42.6107C55.4316 42.6633 55.409 42.7159 55.385 42.7667C55.3666 42.8091 55.3468 42.8498 55.3285 42.8905C55.3087 42.9346 55.2889 42.977 55.2691 43.0211C55.2465 43.0669 55.2253 43.1127 55.2041 43.1568C55.1857 43.1941 55.1688 43.2314 55.1518 43.267C55.1363 43.2992 55.1193 43.3332 55.1038 43.3654C55.0812 43.4129 55.0571 43.4604 55.0345 43.5079C55.0232 43.5299 55.0119 43.5519 55.0006 43.574C54.9723 43.6282 54.9441 43.6842 54.9172 43.7385C54.8989 43.7741 54.8805 43.808 54.8621 43.8419C54.8423 43.8809 54.8211 43.9216 54.7999 43.9606C54.7816 43.9945 54.7632 44.0285 54.7462 44.0607C54.7264 44.098 54.7052 44.137 54.6855 44.1743C54.6671 44.2065 54.6515 44.2371 54.6332 44.2693C54.6134 44.3066 54.5922 44.3439 54.5724 44.3812C54.554 44.4134 54.5371 44.4439 54.5201 44.4762C54.5003 44.5101 54.482 44.544 54.4636 44.5779C54.448 44.6067 54.4325 44.6339 54.4169 44.661C54.3972 44.6966 54.376 44.7322 54.3562 44.7662C54.3519 44.7746 54.3477 44.7814 54.3435 44.7882C54.2078 45.0239 54.0834 45.2376 53.9732 45.4275C53.8884 45.5734 53.9209 45.7565 54.0198 45.8583C54.0198 45.8583 54.0212 45.86 54.0227 45.8617C54.0269 45.8651 54.0311 45.8685 54.0354 45.8718C54.041 45.8769 54.0467 45.882 54.0509 45.8854C54.0806 45.9092 54.1159 45.9244 54.1541 45.9312C54.1668 45.9346 54.1795 45.9346 54.1937 45.9346H60.0528C60.1856 45.9346 60.2973 45.8193 60.3185 45.6633C60.3284 45.592 60.3383 45.5123 60.3496 45.4275C61.0477 39.8736 59.8083 33.2107 56.3544 29.0762C56.346 29.066 56.3417 29.0609 56.3417 29.0609C56.0209 28.6828 55.645 28.2758 55.2069 27.8705C54.8777 27.5652 54.5569 27.3006 54.2558 27.0734C54.1555 26.9971 54.1089 26.853 54.1414 26.7156C54.171 26.5867 54.2007 26.4561 54.2304 26.3256C54.2728 26.1339 54.3138 25.9406 54.3533 25.7507C54.3618 25.7134 54.3689 25.6743 54.3774 25.6353C54.4155 25.4505 54.4509 25.2656 54.4862 25.0825C54.4933 25.0486 54.4989 25.0147 54.5046 24.9825C54.5371 24.8078 54.5696 24.6331 54.5993 24.4601C54.6021 24.4398 54.6063 24.4177 54.6106 24.3974C54.6431 24.2125 54.6727 24.0294 54.7024 23.8446C54.7095 23.8055 54.7151 23.7648 54.7208 23.7258C54.7491 23.5427 54.7773 23.3612 54.8028 23.1798C54.8056 23.156 54.8098 23.134 54.8126 23.1085C54.8367 22.939 54.8593 22.7711 54.8805 22.6015C54.8847 22.571 54.889 22.5387 54.8918 22.5082C54.9144 22.3301 54.9356 22.1521 54.9554 21.974L54.9681 21.8621C54.9879 21.6806 55.0006 21.3737 55.0147 21.2126V21.2092C55.0289 21.0532 55.0656 20.9582 55.1151 20.9514C55.1377 20.948 55.1645 20.9413 55.1942 20.9548C55.2521 20.9786 55.2719 21.0464 55.2762 21.0566L65.4753 45.9431C67.636 45.9397 69.8392 45.938 72.0014 45.9346C72.2021 45.9346 72.3321 45.6819 72.2417 45.4666C70.6688 41.7018 69.1609 38.249 67.7646 34.3859C67.6191 33.9823 67.8989 33.2938 68.1137 32.9275C68.2367 32.7172 68.3596 32.5052 68.4811 32.2915C70.6221 28.525 72.253 24.7213 73.5008 21.043C73.9234 19.7677 74.3459 18.4925 74.7699 17.2155C74.7699 17.2155 74.7699 17.2138 74.7699 17.2121L74.8081 17.0951C74.8688 16.9747 74.9805 16.9052 75.0893 16.9238C75.2037 16.9442 75.2998 17.0578 75.3239 17.207V45.5954C75.3239 45.7752 75.444 45.9193 75.5938 45.9193H82.185C82.3334 45.9193 82.4549 45.7752 82.4549 45.5954V0.326565C82.4549 0.148502 82.3348 0.00267406 82.185 0.00267406M53.0009 27.555C52.8681 27.9586 52.7239 28.3639 52.5699 28.7726C50.8373 33.3192 48.196 36.6397 45.6282 39.024C44.7407 39.8482 43.7063 40.4248 42.6026 40.6724C41.7363 40.8657 40.7371 40.8861 39.7324 40.4384C39.3098 40.2501 38.2457 39.7566 37.5843 38.4559C37.19 37.6792 37.0784 36.894 37.0671 36.1852C37.0656 36.1004 37.0671 36.0139 37.0671 35.9308C37.0713 35.6035 37.0939 35.2949 37.1165 35.0117C37.3115 32.5154 38.4054 30.7856 38.8505 30.1005C40.6962 27.2566 43.3304 26.2424 44.1189 25.966C48.1635 24.5449 51.6852 26.4205 52.8751 27.1548C52.9967 27.2311 53.0518 27.4058 53.0023 27.5584" fill="white"/>
</svg>
